<svg width="40" height="70" viewBox="0 0 187 204" fill="none" xmlns="http://www.w3.org/2000/svg">
    <path d="M149.717 97.92C161.368 101.611 170.494 107.829 177.097 116.571C183.699 125.12 187 135.709 187 148.337C187 166.211 180.009 180.006 166.028 189.72C152.241 199.24 132.046 204 105.442 204H46.8956L149.717 97.92L0 0H99.6168C124.472 0 143.503 4.76 156.707 14.28C170.106 23.8 176.805 36.72 176.805 53.04C176.805 62.9486 174.378 71.7886 169.523 79.56C164.863 87.3314 158.261 93.4514 149.717 97.92ZM46.8956 35.5543V83.64H93.7913C105.442 83.64 114.278 81.6 120.298 77.52C126.317 73.44 129.327 67.4171 129.327 59.4514C129.327 51.4857 126.317 45.56 120.298 41.6743C114.278 37.5943 105.442 35.5543 93.7913 35.5543H46.8956ZM101.947 168.446C114.375 168.446 123.696 166.406 129.91 162.326C136.318 158.246 139.522 151.931 139.522 143.383C139.522 126.48 126.997 118.029 101.947 118.029H46.8956V168.446H101.947Z" fill="#000022">
    </path>
</svg>