<svg id="Layer_1" data-name="Layer 1" xmlns="http://www.w3.org/2000/svg" viewBox="0 0 1920 1080">
  <defs>
    <style>
      .cls-1 {
        fill: #fff;
      }
    </style>
  </defs>
  <title>revel white</title>
  <g>
    <path class="cls-1" d="M568.452,737.708C517.4,726.791,473,705.421,438.98,663.557c-89.116-109.65-37.49-291.85,94.434-330.36,131.964-38.521,259.669,69.9,243.107,206.391-3.686,30.373-28.072,52.162-61.717,52.65-54.812.794-109.643.29-164.466.331-10.5.008-21.006,0-36.08,0,10.828,31.4,34.426,39.8,59.259,46,7.3,1.824,15.39,1.866,22.935,1.043,16.959-1.851,40.906-12.905,49.281-5.607,20.134,17.545,32.945,43.493,52.7,71.76l-89.582,31.942ZM668.627,494.864c-14.043-49.971-43.337-73.192-84.616-69.61-35.475,3.079-64.221,32.621-67.153,69.61Z"/>
    <path class="cls-1" d="M1330.27,737.708c-56.5-11.9-103.8-38.067-137.292-86.719-45.9-66.668-43.839-180.633,5.085-247.514,48.967-66.94,133.5-94.356,212.666-68.974,83.861,26.887,140.936,117.713,128.824,205.006-4.562,32.875-27.437,52.48-64.272,52.906-55.687.645-111.387.189-167.082.2-9.238,0-18.475,0-28.81,0,13.339,36.418,52.515,57.8,95.338,44.643,32.047-9.847,45.279,1.682,58.132,25.9,6.7,12.631,15.521,24.139,27.5,42.439l-89.685,32.11Zm102.978-242.946c-18.5-52.695-46.643-73.812-88.522-69.177-33.455,3.7-60.624,32.254-65.116,69.177Z"/>
    <path class="cls-1" d="M1705.408,674.223h-121.2V281.771h121.2Z"/>
    <path class="cls-1" d="M181.771,385.656c29.5,5.458,54.552,1.353,78.458-21.1C289.69,336.878,327.712,325.933,370.8,327V447.944c-58.947,9.029-68.139,51.875-65.8,103.59,1.8,39.86.359,79.868.359,122.689H181.771Z"/>
    <path class="cls-1" d="M794.711,387.937l112.506-47.75c20.72,48.857,40.716,96.008,63.1,148.783l62.115-148.725,110.17,46.106c-2.428,8.8-3.671,16.134-6.425,22.853-33.474,81.662-67.759,163-100.315,245.023-6.607,16.645-15.359,21.3-31.882,20.274-29.512-1.835-65.431,7.9-86.868-5.748-20.125-12.81-25.343-49.445-36.5-75.859C852.3,525.87,824.341,458.7,794.711,387.937Z"/>
  </g>
</svg>
